<mxfile host="app.diagrams.net" agent="Mozilla/5.0 (Windows NT 10.0; Win64; x64) AppleWebKit/537.36 (KHTML, like Gecko) Chrome/137.0.0.0 Safari/537.36" version="27.1.4">
  <diagram name="Page-1" id="LAhDa3P3H-Kc7iGmrSTM">
    <mxGraphModel dx="826" dy="441" grid="1" gridSize="10" guides="1" tooltips="1" connect="1" arrows="1" fold="1" page="1" pageScale="1" pageWidth="850" pageHeight="1100" math="0" shadow="0">
      <root>
        <mxCell id="0" />
        <mxCell id="1" parent="0" />
        <mxCell id="lNc2GRRCWmieBshyTlnb-24" value="" style="rounded=0;whiteSpace=wrap;html=1;" parent="1" vertex="1">
          <mxGeometry x="90" y="250" width="490" height="260" as="geometry" />
        </mxCell>
        <mxCell id="lNc2GRRCWmieBshyTlnb-2" value="" style="rounded=0;whiteSpace=wrap;html=1;" parent="1" vertex="1">
          <mxGeometry x="290" y="310" width="270" height="90" as="geometry" />
        </mxCell>
        <mxCell id="lNc2GRRCWmieBshyTlnb-3" value="Coeur du jeu" style="text;html=1;align=center;verticalAlign=middle;whiteSpace=wrap;rounded=0;" parent="1" vertex="1">
          <mxGeometry x="290" y="310" width="80" height="20" as="geometry" />
        </mxCell>
        <mxCell id="lNc2GRRCWmieBshyTlnb-13" style="edgeStyle=orthogonalEdgeStyle;rounded=0;orthogonalLoop=1;jettySize=auto;html=1;entryX=0;entryY=0.5;entryDx=0;entryDy=0;startArrow=classic;startFill=1;" parent="1" source="lNc2GRRCWmieBshyTlnb-4" target="lNc2GRRCWmieBshyTlnb-5" edge="1">
          <mxGeometry relative="1" as="geometry" />
        </mxCell>
        <mxCell id="lNc2GRRCWmieBshyTlnb-4" value="Broches" style="rounded=0;whiteSpace=wrap;html=1;" parent="1" vertex="1">
          <mxGeometry x="260" y="345" width="60" height="20" as="geometry" />
        </mxCell>
        <mxCell id="lNc2GRRCWmieBshyTlnb-5" value="Machine à états finis" style="rounded=1;whiteSpace=wrap;html=1;" parent="1" vertex="1">
          <mxGeometry x="350" y="325" width="60" height="60" as="geometry" />
        </mxCell>
        <mxCell id="lNc2GRRCWmieBshyTlnb-6" value="" style="rounded=1;whiteSpace=wrap;html=1;" parent="1" vertex="1">
          <mxGeometry x="475" y="330" width="70" height="30" as="geometry" />
        </mxCell>
        <mxCell id="lNc2GRRCWmieBshyTlnb-7" value="" style="rounded=1;whiteSpace=wrap;html=1;" parent="1" vertex="1">
          <mxGeometry x="465" y="340" width="70" height="30" as="geometry" />
        </mxCell>
        <mxCell id="lNc2GRRCWmieBshyTlnb-8" value="Gestionnaire&lt;div&gt;d&#39;état&lt;/div&gt;" style="rounded=1;whiteSpace=wrap;html=1;" parent="1" vertex="1">
          <mxGeometry x="455" y="350" width="70" height="30" as="geometry" />
        </mxCell>
        <mxCell id="lNc2GRRCWmieBshyTlnb-11" value="" style="shape=curlyBracket;whiteSpace=wrap;html=1;rounded=1;labelPosition=left;verticalLabelPosition=middle;align=right;verticalAlign=middle;" parent="1" vertex="1">
          <mxGeometry x="440" y="325" width="10" height="60" as="geometry" />
        </mxCell>
        <mxCell id="lNc2GRRCWmieBshyTlnb-12" style="edgeStyle=orthogonalEdgeStyle;rounded=0;orthogonalLoop=1;jettySize=auto;html=1;exitX=1;exitY=0.5;exitDx=0;exitDy=0;entryX=0.1;entryY=0.5;entryDx=0;entryDy=0;entryPerimeter=0;startArrow=classic;startFill=1;" parent="1" source="lNc2GRRCWmieBshyTlnb-5" target="lNc2GRRCWmieBshyTlnb-11" edge="1">
          <mxGeometry relative="1" as="geometry" />
        </mxCell>
        <mxCell id="lNc2GRRCWmieBshyTlnb-14" value="" style="rounded=0;whiteSpace=wrap;html=1;" parent="1" vertex="1">
          <mxGeometry x="110" y="270" width="120" height="70" as="geometry" />
        </mxCell>
        <mxCell id="lNc2GRRCWmieBshyTlnb-15" value="App test console" style="text;html=1;align=center;verticalAlign=middle;whiteSpace=wrap;rounded=0;" parent="1" vertex="1">
          <mxGeometry x="110" y="270" width="100" height="20" as="geometry" />
        </mxCell>
        <mxCell id="lNc2GRRCWmieBshyTlnb-18" style="edgeStyle=orthogonalEdgeStyle;rounded=0;orthogonalLoop=1;jettySize=auto;html=1;exitX=1;exitY=0.5;exitDx=0;exitDy=0;entryX=0;entryY=0.5;entryDx=0;entryDy=0;startArrow=classicThin;startFill=1;" parent="1" source="lNc2GRRCWmieBshyTlnb-17" target="lNc2GRRCWmieBshyTlnb-4" edge="1">
          <mxGeometry relative="1" as="geometry">
            <Array as="points">
              <mxPoint x="240" y="310" />
              <mxPoint x="240" y="355" />
            </Array>
          </mxGeometry>
        </mxCell>
        <mxCell id="lNc2GRRCWmieBshyTlnb-21" style="edgeStyle=orthogonalEdgeStyle;rounded=0;orthogonalLoop=1;jettySize=auto;html=1;exitX=0;exitY=0.5;exitDx=0;exitDy=0;startArrow=classic;startFill=1;endArrow=none;" parent="1" source="lNc2GRRCWmieBshyTlnb-17" edge="1">
          <mxGeometry relative="1" as="geometry">
            <mxPoint x="80" y="310" as="targetPoint" />
          </mxGeometry>
        </mxCell>
        <mxCell id="lNc2GRRCWmieBshyTlnb-17" value="AI joueur de base" style="rounded=1;whiteSpace=wrap;html=1;" parent="1" vertex="1">
          <mxGeometry x="125" y="295" width="90" height="30" as="geometry" />
        </mxCell>
        <mxCell id="lNc2GRRCWmieBshyTlnb-22" value="Entrée pour tests" style="text;html=1;align=center;verticalAlign=middle;whiteSpace=wrap;rounded=0;" parent="1" vertex="1">
          <mxGeometry x="20" y="295" width="60" height="30" as="geometry" />
        </mxCell>
        <mxCell id="lNc2GRRCWmieBshyTlnb-25" value="" style="rounded=0;whiteSpace=wrap;html=1;" parent="1" vertex="1">
          <mxGeometry x="110" y="367" width="120" height="93" as="geometry" />
        </mxCell>
        <mxCell id="lNc2GRRCWmieBshyTlnb-26" value="Serveur web" style="text;html=1;align=center;verticalAlign=middle;whiteSpace=wrap;rounded=0;" parent="1" vertex="1">
          <mxGeometry x="110" y="367" width="80" height="20" as="geometry" />
        </mxCell>
        <mxCell id="lNc2GRRCWmieBshyTlnb-27" value="" style="rounded=0;whiteSpace=wrap;html=1;" parent="1" vertex="1">
          <mxGeometry x="310" y="423.75" width="90" height="45" as="geometry" />
        </mxCell>
        <mxCell id="lNc2GRRCWmieBshyTlnb-28" value="" style="rounded=0;whiteSpace=wrap;html=1;" parent="1" vertex="1">
          <mxGeometry x="300" y="431.25" width="90" height="45" as="geometry" />
        </mxCell>
        <mxCell id="lNc2GRRCWmieBshyTlnb-29" value="Templates de pages" style="rounded=0;whiteSpace=wrap;html=1;" parent="1" vertex="1">
          <mxGeometry x="290" y="441.25" width="90" height="45" as="geometry" />
        </mxCell>
        <mxCell id="lNc2GRRCWmieBshyTlnb-30" value="API" style="rounded=1;whiteSpace=wrap;html=1;" parent="1" vertex="1">
          <mxGeometry x="152.5" y="400" width="35" height="30" as="geometry" />
        </mxCell>
        <mxCell id="lNc2GRRCWmieBshyTlnb-32" style="edgeStyle=orthogonalEdgeStyle;rounded=0;orthogonalLoop=1;jettySize=auto;html=1;exitX=0;exitY=0.5;exitDx=0;exitDy=0;entryX=1;entryY=0.5;entryDx=0;entryDy=0;" parent="1" source="lNc2GRRCWmieBshyTlnb-4" target="lNc2GRRCWmieBshyTlnb-30" edge="1">
          <mxGeometry relative="1" as="geometry">
            <Array as="points">
              <mxPoint x="240" y="355" />
              <mxPoint x="240" y="415" />
            </Array>
          </mxGeometry>
        </mxCell>
        <mxCell id="lNc2GRRCWmieBshyTlnb-33" value="" style="shape=curlyBracket;whiteSpace=wrap;html=1;rounded=1;labelPosition=left;verticalLabelPosition=middle;align=right;verticalAlign=middle;" parent="1" vertex="1">
          <mxGeometry x="270" y="420" width="10" height="66.25" as="geometry" />
        </mxCell>
        <mxCell id="lNc2GRRCWmieBshyTlnb-35" style="edgeStyle=orthogonalEdgeStyle;rounded=0;orthogonalLoop=1;jettySize=auto;html=1;exitX=1;exitY=0.5;exitDx=0;exitDy=0;entryX=0.1;entryY=0.5;entryDx=0;entryDy=0;entryPerimeter=0;" parent="1" source="lNc2GRRCWmieBshyTlnb-30" target="lNc2GRRCWmieBshyTlnb-33" edge="1">
          <mxGeometry relative="1" as="geometry">
            <Array as="points">
              <mxPoint x="240" y="415" />
              <mxPoint x="240" y="453" />
            </Array>
          </mxGeometry>
        </mxCell>
        <mxCell id="lNc2GRRCWmieBshyTlnb-37" style="edgeStyle=orthogonalEdgeStyle;rounded=0;orthogonalLoop=1;jettySize=auto;html=1;entryX=0;entryY=0.5;entryDx=0;entryDy=0;startArrow=classic;startFill=1;" parent="1" source="lNc2GRRCWmieBshyTlnb-36" target="lNc2GRRCWmieBshyTlnb-30" edge="1">
          <mxGeometry relative="1" as="geometry" />
        </mxCell>
        <mxCell id="lNc2GRRCWmieBshyTlnb-38" value="HTTP&lt;div&gt;WS&lt;/div&gt;" style="edgeLabel;html=1;align=center;verticalAlign=middle;resizable=0;points=[];fontSize=9;" parent="lNc2GRRCWmieBshyTlnb-37" vertex="1" connectable="0">
          <mxGeometry x="0.3241" relative="1" as="geometry">
            <mxPoint as="offset" />
          </mxGeometry>
        </mxCell>
        <mxCell id="lNc2GRRCWmieBshyTlnb-36" value="Entrée pour joueurs" style="text;html=1;align=center;verticalAlign=middle;whiteSpace=wrap;rounded=0;" parent="1" vertex="1">
          <mxGeometry x="10" y="400" width="70" height="30" as="geometry" />
        </mxCell>
      </root>
    </mxGraphModel>
  </diagram>
</mxfile>
